<svg xmlns="http://www.w3.org/2000/svg" width="111.34" height="92.88" viewBox="0 0 111.34 92.88">
  <g id="Layer_1" data-name="Layer 1" transform="translate(0 -0.01)" opacity="0.7">
    <g id="Group_10651" data-name="Group 10651">
      <g id="Group_10648" data-name="Group 10648">
        <path id="Path_28297" data-name="Path 28297" d="M93.25,38.54h0a3.271,3.271,0,0,1-3.27,3.27H22.75a3.271,3.271,0,0,1-3.27-3.27h0a3.274,3.274,0,0,1,1.35-2.65l11.35-8.28,3.37-2.47a3.327,3.327,0,0,1,2.33-.61c.25.03.51.06.76.1A43.889,43.889,0,0,1,54.2,30.21a2.385,2.385,0,0,0,2.84,0,39.906,39.906,0,0,1,16.42-5.68c.88-.09,1.76-.12,2.63-.17l.51.37a26.305,26.305,0,0,0-.69,4.14,2.95,2.95,0,0,0,5,2.41,4.228,4.228,0,0,0,.51-.74,3.246,3.246,0,0,0,.41-1.59v-.41l2.79,2.04,7.28,5.31a3.274,3.274,0,0,1,1.35,2.65Z" fill="#a7aaab"/>
        <path id="Path_28298" data-name="Path 28298" d="M89.83,48.48H22.72V42.81H89.83v5.67Z" fill="#a7aaab"/>
        <path id="Path_28299" data-name="Path 28299" d="M89.83,88.95H21.42v-4.2H89.83v4.2Z" fill="#a7aaab"/>
        <path id="Path_28300" data-name="Path 28300" d="M93.16,88.95H18.09v3.94H93.16V88.95Z" fill="#a7aaab"/>
        <path id="Path_28301" data-name="Path 28301" d="M36.68,51.93H25.82V49.47H36.68v2.46Z" fill="#a7aaab"/>
        <path id="Path_28302" data-name="Path 28302" d="M36.68,83.76H25.82V81.3H36.68v2.46Z" fill="#a7aaab"/>
        <path id="Path_28303" data-name="Path 28303" d="M35.52,81.48H26.97V50.7h8.55V81.48Z" fill="#a7aaab"/>
        <path id="Path_28304" data-name="Path 28304" d="M61.8,51.93H50.93V49.47H61.8v2.46Z" fill="#a7aaab"/>
        <path id="Path_28305" data-name="Path 28305" d="M61.8,83.76H50.93V81.3H61.8v2.46Z" fill="#a7aaab"/>
        <path id="Path_28306" data-name="Path 28306" d="M60.64,81.48H52.09V50.7h8.55V81.48Z" fill="#a7aaab"/>
        <path id="Path_28307" data-name="Path 28307" d="M86.91,51.93H76.04V49.47H86.91v2.46Z" fill="#a7aaab"/>
        <path id="Path_28308" data-name="Path 28308" d="M86.91,83.76H76.04V81.3H86.91v2.46Z" fill="#a7aaab"/>
        <path id="Path_28309" data-name="Path 28309" d="M85.75,81.48H77.2V50.7h8.55V81.48Z" fill="#a7aaab"/>
        <g id="Group_10647" data-name="Group 10647">
          <path id="Path_28310" data-name="Path 28310" d="M80.75,22.82c-.32.51-.66,1-1.04,1.57.13.41.32.96.46,1.52.21.9.38,1.8.58,2.71v.88a2.386,2.386,0,0,1-.59.93,1.8,1.8,0,0,1-2.12.35,1.848,1.848,0,0,1-1.05-1.88,16.28,16.28,0,0,1,1.1-4.68,2.053,2.053,0,0,1-1.08-1.47,1.923,1.923,0,0,1,.72-1.77.743.743,0,0,0,.29-.49q.015-5.2,0-10.41a1.4,1.4,0,0,0-.03-.24c-.18.06-.35.11-.51.17-6.83,2.67-13.64,5.31-20.47,7.98-.29.11-.6.24-.9.35a2.4,2.4,0,0,1-1.84,0c-.11-.04-.21-.08-.32-.13Q42.565,13.77,31.18,9.33a3,3,0,0,1-.67-.53,3.075,3.075,0,0,1,.69-.46C38.9,5.6,46.6,2.9,54.29.17a2.675,2.675,0,0,1,1.85.01Q67.63,4.245,79.13,8.3c.17.06.38.08.49.2a.763.763,0,0,1,.2.51c0,.24-.14.46-.14.69-.01,3.55,0,7.11-.01,10.65a.907.907,0,0,0,.32.7,5.982,5.982,0,0,1,.76,1.1v.69Z" fill="#a7aaab"/>
          <path id="Path_28311" data-name="Path 28311" d="M37.6,23.09V14.67c1.51.5,2.97.99,4.42,1.48,4.29,1.45,8.57,2.89,12.85,4.35a1.932,1.932,0,0,0,1.32,0q8.43-2.835,16.86-5.63c.18-.06.37-.11.61-.18v8.47c-.86.05-1.72.08-2.58.17a34.406,34.406,0,0,0-14.23,4.92,2.055,2.055,0,0,1-2.46,0,37.916,37.916,0,0,0-13.48-4.83c-1.07-.16-2.16-.22-3.31-.33Z" fill="#a7aaab"/>
        </g>
      </g>
      <g id="Group_10649" data-name="Group 10649">
        <path id="Path_28312" data-name="Path 28312" d="M9.1,76.61a33.473,33.473,0,0,0,3.3,6.17,24.482,24.482,0,0,0,2.15,2.7,18.971,18.971,0,0,0,2.53,2.3l.39-.64a20.887,20.887,0,0,1-4.59-4.78,32.414,32.414,0,0,1-3.31-6.01,44.28,44.28,0,0,1-2.2-6.65A51.69,51.69,0,0,1,5.94,55.57a47.28,47.28,0,0,1,.78-7.12,38.836,38.836,0,0,1,1.94-6.88,30.4,30.4,0,0,1,1.47-3.23A25.3,25.3,0,0,1,12,35.36a24.458,24.458,0,0,0-1.9,2.96,28.627,28.627,0,0,0-1.51,3.22,39.448,39.448,0,0,0-2.03,6.88,48.989,48.989,0,0,0-.87,7.15,54.06,54.06,0,0,0,.15,7.2,52.042,52.042,0,0,0,1.12,7.07A44.771,44.771,0,0,0,9.1,76.61Z" fill="#a7aaab"/>
        <path id="Path_28313" data-name="Path 28313" d="M16.84,75.94a4.429,4.429,0,0,0,.06-.51,1.927,1.927,0,0,1,.01-.24v-.23a2.119,2.119,0,0,0-.05-.44,6.86,6.86,0,0,0-2.04,1.2,7.738,7.738,0,0,0-.92.89c-.14.16-.28.33-.41.5-.06.09-.13.17-.19.26s-.11.17-.17.26a4.793,4.793,0,0,0-.66,1.94,5.35,5.35,0,0,0-.03.97,1.849,1.849,0,0,0,.06.42,2.418,2.418,0,0,0,.11.35c.23-.31.45-.61.67-.92.11-.15.21-.31.32-.46.05-.08.1-.15.15-.23l.15-.24c.41-.63.79-1.26,1.13-1.9.21-.4.41-.8.59-1.19-.08.21-.17.41-.26.62-.05.11-.09.21-.14.32s-.09.21-.14.31c-.19.42-.39.84-.61,1.27s-.45.85-.69,1.28-.5.86-.77,1.28a5.018,5.018,0,0,0,1.65-1.22,8.8,8.8,0,0,0,1.28-1.76c.08-.15.16-.3.23-.46.04-.08.07-.16.11-.25s.07-.17.1-.26a8.546,8.546,0,0,0,.32-1.06c.04-.17.08-.35.11-.53Z" fill="#a7aaab"/>
        <path id="Path_28314" data-name="Path 28314" d="M3.75,82.68a4.629,4.629,0,0,0,.41.49,2.662,2.662,0,0,0,.24.23c.08.07.17.14.25.21a5.22,5.22,0,0,0,.54.38,4.023,4.023,0,0,0,.58.31,5.872,5.872,0,0,0,1.18.4,2.933,2.933,0,0,0,.29.05l.28.03a4.683,4.683,0,0,0,.53,0,4.635,4.635,0,0,0,1.99-.65,4.939,4.939,0,0,0,1.52-1.43,9.535,9.535,0,0,1-1.37.36,8.226,8.226,0,0,1-1.39.16,8.248,8.248,0,0,1-1.4-.06c-.12-.01-.23-.03-.35-.05s-.23-.04-.34-.07c-.23-.05-.46-.11-.69-.17a7.677,7.677,0,0,0,1.34.17,9.526,9.526,0,0,0,2.14-.19l.26-.06a1.973,1.973,0,0,0,.26-.07l.52-.15c.34-.11.68-.24,1.02-.38a2.35,2.35,0,0,0-.28-.25,3.025,3.025,0,0,0-.35-.23,5.471,5.471,0,0,0-.84-.41,6.258,6.258,0,0,0-.96-.29,4.131,4.131,0,0,0-.98-.1c-.1,0-.2,0-.3.01s-.2.01-.3.02c-.2.02-.41.05-.61.09a6.278,6.278,0,0,0-1.2.33,4.644,4.644,0,0,0-1.98,1.32Z" fill="#a7aaab"/>
        <path id="Path_28315" data-name="Path 28315" d="M14.88,71.56c.01-.08.02-.16.03-.23a3.229,3.229,0,0,0,0-.44,5.985,5.985,0,0,0-2.05.83,7.692,7.692,0,0,0-1.8,1.56,4.846,4.846,0,0,0-.86,1.73,5.075,5.075,0,0,0-.15.91v.41a1.23,1.23,0,0,0,.05.35c.26-.24.51-.5.75-.75s.48-.51.71-.78.45-.53.67-.8c.11-.13.21-.27.31-.41s.21-.27.31-.41c.25-.35.48-.7.7-1.04-.2.37-.41.74-.64,1.12-.12.19-.23.37-.35.55s-.24.37-.37.55c-.26.37-.53.73-.82,1.09s-.58.72-.9,1.07A5.9,5.9,0,0,0,13.6,74.6a7.041,7.041,0,0,0,.54-.86c.08-.16.16-.32.23-.48s.13-.32.2-.49a5.547,5.547,0,0,0,.27-.98,2.079,2.079,0,0,0,.03-.23Z" fill="#a7aaab"/>
        <path id="Path_28316" data-name="Path 28316" d="M3.71,75.65a4.354,4.354,0,0,0-2.01.94,3.837,3.837,0,0,0,.32.5l.18.24c.07.08.14.15.21.22a5.742,5.742,0,0,0,.93.78,5.236,5.236,0,0,0,.51.3,3.933,3.933,0,0,0,.52.23,3.85,3.85,0,0,0,.99.24,4.452,4.452,0,0,0,3.55-1.34,9.93,9.93,0,0,1-1.32.11,9.357,9.357,0,0,1-1.3-.08c-.22-.03-.43-.06-.65-.11A4.988,4.988,0,0,1,5,77.52a9.773,9.773,0,0,1-1.24-.46,8.51,8.51,0,0,0,1.22.35c.17.03.33.06.5.08s.34.04.5.05c.33.02.67.03,1,.02a8.444,8.444,0,0,0,1-.09,9.159,9.159,0,0,0,1-.18,1.793,1.793,0,0,0-.22-.28,3.7,3.7,0,0,0-.28-.28,5.212,5.212,0,0,0-.73-.51A4.77,4.77,0,0,0,6,75.57a6.861,6.861,0,0,0-2.3.08Z" fill="#a7aaab"/>
        <path id="Path_28317" data-name="Path 28317" d="M13.26,67.86A3.423,3.423,0,0,0,13.4,67a5.256,5.256,0,0,0-1.99.52,6.689,6.689,0,0,0-.97.55,6.4,6.4,0,0,0-.85.69,3.514,3.514,0,0,0-.56.7,4.97,4.97,0,0,0-.42.83,4.783,4.783,0,0,0-.24.83,2.282,2.282,0,0,0-.04.72c.53-.39,1.05-.8,1.53-1.23a15.9,15.9,0,0,0,1.37-1.35c.27-.3.52-.6.76-.9-.11.17-.23.33-.35.49s-.24.33-.37.49c-.25.32-.51.64-.79.95s-.58.62-.88.92-.62.59-.95.88a5.2,5.2,0,0,0,3.17-1.7,6.5,6.5,0,0,0,1.09-1.61c.07-.15.14-.3.2-.46s.11-.31.16-.46Z" fill="#a7aaab"/>
        <path id="Path_28318" data-name="Path 28318" d="M2.48,70.09a4.208,4.208,0,0,0-1.97.63,4.075,4.075,0,0,0,.56.96,5.2,5.2,0,0,0,.37.43,3.78,3.78,0,0,0,.41.39,4.535,4.535,0,0,0,1.79.95,4.163,4.163,0,0,0,3.45-.76,10.192,10.192,0,0,1-1.24-.08,7.966,7.966,0,0,1-1.2-.24,9.941,9.941,0,0,1-1.16-.4,5.767,5.767,0,0,1-.56-.27c-.18-.1-.36-.2-.54-.31a8.735,8.735,0,0,0,1.09.47,9.1,9.1,0,0,0,1.85.39,9.928,9.928,0,0,0,1.89.02,2.58,2.58,0,0,0-.41-.58,4.28,4.28,0,0,0-.62-.57,5.371,5.371,0,0,0-.75-.49,3.729,3.729,0,0,0-.81-.33,7.339,7.339,0,0,0-1.06-.19,5.671,5.671,0,0,0-1.09-.01Z" fill="#a7aaab"/>
        <path id="Path_28319" data-name="Path 28319" d="M12.23,63.43a3.144,3.144,0,0,0,.08-.4A5.684,5.684,0,0,0,8.6,64.28,4.174,4.174,0,0,0,7.55,65.6a3.208,3.208,0,0,0-.4,1.43,16.784,16.784,0,0,0,2.94-2.09c.28-.25.53-.51.78-.77-.23.29-.48.57-.75.85s-.55.55-.83.81A16.163,16.163,0,0,1,7.42,67.3a4.707,4.707,0,0,0,3.11-1.22,6.27,6.27,0,0,0,1.16-1.4,4.856,4.856,0,0,0,.4-.83,3.844,3.844,0,0,0,.13-.41Z" fill="#a7aaab"/>
        <path id="Path_28320" data-name="Path 28320" d="M0,65.13a4.681,4.681,0,0,0,.18.48,2.94,2.94,0,0,0,.25.46,5.885,5.885,0,0,0,.65.84,4.117,4.117,0,0,0,1.57,1.07,3.916,3.916,0,0,0,3.28-.31,9.121,9.121,0,0,1-2.24-.58,7.534,7.534,0,0,1-1.03-.5,8.639,8.639,0,0,1-.97-.65,9.433,9.433,0,0,0,.98.55,8.229,8.229,0,0,0,1.67.57,10.226,10.226,0,0,0,1.75.23,3.708,3.708,0,0,0-.85-1.2,4.4,4.4,0,0,0-1.38-.94A4.886,4.886,0,0,0,0,65.12Z" fill="#a7aaab"/>
        <path id="Path_28321" data-name="Path 28321" d="M9.38,60.67c.27-.2.53-.42.79-.64-.12.12-.25.25-.38.36s-.26.24-.39.35c-.27.23-.54.46-.83.67a13.99,13.99,0,0,1-1.86,1.18,4.225,4.225,0,0,0,2.98-.81,4.263,4.263,0,0,0,.62-.53,5.3,5.3,0,0,0,.57-.67,6.357,6.357,0,0,0,.45-.74,3.278,3.278,0,0,0,.26-.74,4.508,4.508,0,0,0-1.78.07,5.644,5.644,0,0,0-1.75.73,3.77,3.77,0,0,0-1.08,1.13,3.524,3.524,0,0,0-.34.67,2.7,2.7,0,0,0-.15.61,13.116,13.116,0,0,0,1.5-.75,15.055,15.055,0,0,0,1.39-.9Z" fill="#a7aaab"/>
        <path id="Path_28322" data-name="Path 28322" d="M1.79,59.68a3.536,3.536,0,0,0-1.78.17,3.951,3.951,0,0,0,.32.91,5.18,5.18,0,0,0,.53.84,4.27,4.27,0,0,0,.66.68,3.3,3.3,0,0,0,.71.46,3.641,3.641,0,0,0,3.06.05,9.014,9.014,0,0,1-2.03-.76,8.775,8.775,0,0,1-.92-.57c-.15-.11-.29-.21-.43-.33s-.28-.24-.41-.36a6.591,6.591,0,0,0,.86.6,8.468,8.468,0,0,0,1.5.69,9.717,9.717,0,0,0,1.61.4,2.82,2.82,0,0,0-.25-.58,3.791,3.791,0,0,0-.43-.61,4.057,4.057,0,0,0-1.2-1,5.65,5.65,0,0,0-1.8-.57Z" fill="#a7aaab"/>
        <path id="Path_28323" data-name="Path 28323" d="M9.05,56.54a8.63,8.63,0,0,0,.77-.52,12.174,12.174,0,0,1-1.58,1.13,13.311,13.311,0,0,1-1.81.91,3.894,3.894,0,0,0,2.82-.46,3.458,3.458,0,0,0,.62-.43,5.112,5.112,0,0,0,.57-.57,4.554,4.554,0,0,0,.47-.64,2.759,2.759,0,0,0,.3-.66,4.7,4.7,0,0,0-3.32.41,3.339,3.339,0,0,0-1.08.94,3.821,3.821,0,0,0-.37.59,2.123,2.123,0,0,0-.19.55,13.979,13.979,0,0,0,1.45-.55,12.285,12.285,0,0,0,1.35-.7Z" fill="#a7aaab"/>
        <path id="Path_28324" data-name="Path 28324" d="M3.3,57.21a8.031,8.031,0,0,1-1.53-1.33,7.37,7.37,0,0,0,.74.64,7.46,7.46,0,0,0,1.33.78,8.256,8.256,0,0,0,1.44.52,2.406,2.406,0,0,0-.18-.56,3.807,3.807,0,0,0-.35-.61,3.889,3.889,0,0,0-1.02-1.04A4.236,4.236,0,0,0,.46,54.9a4.075,4.075,0,0,0,.66,1.69,3.834,3.834,0,0,0,.56.69,3.276,3.276,0,0,0,.61.49,3.375,3.375,0,0,0,2.82.34,8.415,8.415,0,0,1-1.8-.9Z" fill="#a7aaab"/>
        <path id="Path_28325" data-name="Path 28325" d="M9.05,52.62a6.787,6.787,0,0,0,.75-.41c-.12.08-.24.16-.37.24s-.25.16-.38.23c-.26.15-.52.29-.8.42a11.934,11.934,0,0,1-1.73.67,3.518,3.518,0,0,0,2.62-.15,3.65,3.65,0,0,0,.6-.34,5.078,5.078,0,0,0,.57-.47,4.111,4.111,0,0,0,.48-.55,2.791,2.791,0,0,0,.32-.58,3.643,3.643,0,0,0-1.5-.25,4.465,4.465,0,0,0-.81.09,4.871,4.871,0,0,0-.77.22,3.046,3.046,0,0,0-1.07.76,3.636,3.636,0,0,0-.39.51,1.681,1.681,0,0,0-.21.49,11.977,11.977,0,0,0,1.37-.37,11.362,11.362,0,0,0,1.3-.52Z" fill="#a7aaab"/>
        <path id="Path_28326" data-name="Path 28326" d="M1.32,50.28a2.939,2.939,0,0,0,.14.82,3.968,3.968,0,0,0,.33.8,4.321,4.321,0,0,0,.45.69,3.111,3.111,0,0,0,3.08,1.09,7.822,7.822,0,0,1-1.58-1,8.3,8.3,0,0,1-.69-.64c-.11-.11-.21-.23-.32-.35s-.2-.25-.29-.38a7.821,7.821,0,0,0,.63.66,8.03,8.03,0,0,0,1.16.85,8.506,8.506,0,0,0,1.29.62,2.1,2.1,0,0,0-.13-.54,3.864,3.864,0,0,0-.27-.59,3.742,3.742,0,0,0-.86-1.06,5.4,5.4,0,0,0-.68-.46,4.212,4.212,0,0,0-.75-.34,2.963,2.963,0,0,0-1.51-.17Z" fill="#a7aaab"/>
        <path id="Path_28327" data-name="Path 28327" d="M7.48,48.63a2.362,2.362,0,0,0-.63.86,10.992,10.992,0,0,0,1.28-.2,10.033,10.033,0,0,0,1.22-.35c.25-.09.48-.19.72-.3q-.345.2-.72.36c-.25.11-.5.21-.76.31a9.527,9.527,0,0,1-1.63.44,3.179,3.179,0,0,0,2.39.11,3.756,3.756,0,0,0,1.13-.63,2.9,2.9,0,0,0,.82-.95,4,4,0,0,0-2.8-.25,2.707,2.707,0,0,0-1.03.6Z" fill="#a7aaab"/>
        <path id="Path_28328" data-name="Path 28328" d="M5.1,47.22a3.69,3.69,0,0,0-2.6-1.17,3.618,3.618,0,0,0,.29,1.53,3.341,3.341,0,0,0,.79,1.19,2.877,2.877,0,0,0,2.28.78A7.051,7.051,0,0,1,4.5,48.48a7.255,7.255,0,0,1-.58-.65,6.2,6.2,0,0,1-.49-.73,6.554,6.554,0,0,0,.52.66,6.926,6.926,0,0,0,.99.89,8.018,8.018,0,0,0,1.12.69,2.893,2.893,0,0,0-.27-1.07,3.329,3.329,0,0,0-.7-1.05Z" fill="#a7aaab"/>
        <path id="Path_28329" data-name="Path 28329" d="M9.93,45.52c.23-.06.45-.13.67-.2a8.593,8.593,0,0,1-1.38.46,9.031,9.031,0,0,1-1.5.24,2.956,2.956,0,0,0,2.15.34,3.5,3.5,0,0,0,1.07-.45,3.43,3.43,0,0,0,.47-.36,1.954,1.954,0,0,0,.35-.42,3.554,3.554,0,0,0-2.51-.5,2.223,2.223,0,0,0-.98.44,1.947,1.947,0,0,0-.63.71,10.262,10.262,0,0,0,2.3-.25Z" fill="#a7aaab"/>
        <path id="Path_28330" data-name="Path 28330" d="M6.23,43.54a3.375,3.375,0,0,0-2.25-1.32,2.732,2.732,0,0,0,0,.7,4.268,4.268,0,0,0,.15.71,3.193,3.193,0,0,0,.62,1.16,2.6,2.6,0,0,0,1.99.93,6.975,6.975,0,0,1-1.14-1.1,6.107,6.107,0,0,1-.85-1.36,4.82,4.82,0,0,0,.42.65,6.894,6.894,0,0,0,1.77,1.64,2.588,2.588,0,0,0-.16-1,3.212,3.212,0,0,0-.54-1.02Z" fill="#a7aaab"/>
        <path id="Path_28331" data-name="Path 28331" d="M10.73,42.41c.21-.03.41-.07.61-.11a7.523,7.523,0,0,1-1.27.26,8.681,8.681,0,0,1-1.36.06,2.683,2.683,0,0,0,1.89.53,2.247,2.247,0,0,0,.49-.1,3.068,3.068,0,0,0,.5-.2,2.144,2.144,0,0,0,.79-.61,3.305,3.305,0,0,0-2.19-.72,1.624,1.624,0,0,0-.47.09,2.194,2.194,0,0,0-.44.2,2.156,2.156,0,0,0-.38.27,1.326,1.326,0,0,0-.25.3,9.256,9.256,0,0,0,1.05.07,8.773,8.773,0,0,0,1.03-.05Z" fill="#a7aaab"/>
        <path id="Path_28332" data-name="Path 28332" d="M7.6,40.25a3.105,3.105,0,0,0-1.89-1.42,3.114,3.114,0,0,0,0,1.29,3.623,3.623,0,0,0,.18.61,2.605,2.605,0,0,0,.27.5,2.406,2.406,0,0,0,1.7,1.04,6.223,6.223,0,0,1-.93-1.11,5.9,5.9,0,0,1-.64-1.31,4.655,4.655,0,0,0,.32.63,5.808,5.808,0,0,0,.65.89,7.093,7.093,0,0,0,.79.76,1.847,1.847,0,0,0,.02-.42A2.225,2.225,0,0,0,8,41.22a3.018,3.018,0,0,0-.16-.51,2.2,2.2,0,0,0-.23-.46Z" fill="#a7aaab"/>
        <path id="Path_28333" data-name="Path 28333" d="M11.73,39.62c.19,0,.37-.01.55-.02-.09.01-.19.03-.28.04l-.28.03a5.524,5.524,0,0,1-.58.02,7.109,7.109,0,0,1-1.2-.1,2.348,2.348,0,0,0,1.61.67,2.43,2.43,0,0,0,.9-.15,2.681,2.681,0,0,0,.42-.19,1.226,1.226,0,0,0,.33-.26,2.613,2.613,0,0,0-.84-.6,3.172,3.172,0,0,0-1.02-.28,1.852,1.852,0,0,0-.83.15,1.684,1.684,0,0,0-.35.2,1.742,1.742,0,0,0-.14.12,1.2,1.2,0,0,0-.11.12,8.216,8.216,0,0,0,1.82.25Z" fill="#a7aaab"/>
        <path id="Path_28334" data-name="Path 28334" d="M9.44,38.26a2.681,2.681,0,0,0-.26-.9,3.772,3.772,0,0,0-.66-.92,2,2,0,0,0-.87-.55,2.445,2.445,0,0,0-.12.55,2.908,2.908,0,0,0,0,.59,2.774,2.774,0,0,0,.29,1.03,2.2,2.2,0,0,0,1.4,1.11,5.646,5.646,0,0,1-.97-1.68c-.04-.1-.07-.21-.1-.31a2.992,2.992,0,0,1-.08-.32,4.188,4.188,0,0,0,.22.59,5.584,5.584,0,0,0,1.12,1.62.847.847,0,0,0,.04-.17c0-.06.02-.13.02-.2a3.542,3.542,0,0,0-.02-.45Z" fill="#a7aaab"/>
        <path id="Path_28335" data-name="Path 28335" d="M13.86,37.59a1.328,1.328,0,0,0,.31-.18,2.633,2.633,0,0,0-1.52-.99,1.506,1.506,0,0,0-.73.03,1.246,1.246,0,0,0-.56.31,6.417,6.417,0,0,0,1.55.43c.16.02.32.04.48.05H12.9a4.454,4.454,0,0,1-.5-.05,4.592,4.592,0,0,1-.51-.1c-.17-.04-.34-.08-.52-.14a2.152,2.152,0,0,0,1.33.78,2.111,2.111,0,0,0,.79-.02,2.376,2.376,0,0,0,.38-.11Z" fill="#a7aaab"/>
        <path id="Path_28336" data-name="Path 28336" d="M10.95,36.43a1.937,1.937,0,0,0,.11-.7,2.472,2.472,0,0,0-.13-.82,2.627,2.627,0,0,0-1.17-1.47,2.164,2.164,0,0,0-.16.47,2.242,2.242,0,0,0-.06.52,2.591,2.591,0,0,0,.15.93,1.974,1.974,0,0,0,1.1,1.13c-.1-.16-.2-.33-.29-.5a4.925,4.925,0,0,1-.22-.53,4.976,4.976,0,0,1-.16-.55c-.02-.09-.04-.19-.06-.29a2.885,2.885,0,0,1-.04-.29,3.531,3.531,0,0,0,.13.54,5.428,5.428,0,0,0,.8,1.55Z" fill="#a7aaab"/>
        <path id="Path_28337" data-name="Path 28337" d="M13.48,34.71a2.912,2.912,0,0,0,.86-1.76,2.255,2.255,0,0,0-.45,0,1.591,1.591,0,0,0-.46.13,2.013,2.013,0,0,0-.74.5,2.383,2.383,0,0,0-.6,1.56,4.072,4.072,0,0,1,.33-.48c.12-.15.24-.29.37-.43a4.722,4.722,0,0,1,.41-.37c.07-.06.15-.11.22-.17s.15-.1.23-.15a4.345,4.345,0,0,0-.42.33,5.517,5.517,0,0,0-1.05,1.41,1.366,1.366,0,0,0,.63-.15,2.2,2.2,0,0,0,.65-.44Z" fill="#a7aaab"/>
      </g>
      <g id="Group_10650" data-name="Group 10650">
        <path id="Path_28338" data-name="Path 28338" d="M104.38,69.85a51,51,0,0,0,1.12-7.07,54.025,54.025,0,0,0,.15-7.2,47.655,47.655,0,0,0-.87-7.15,38.848,38.848,0,0,0-2.03-6.88,33.733,33.733,0,0,0-1.51-3.22,25.265,25.265,0,0,0-1.9-2.96,25.3,25.3,0,0,1,1.87,2.98,28.524,28.524,0,0,1,1.47,3.23,39.7,39.7,0,0,1,1.94,6.88,48.61,48.61,0,0,1,.78,7.12,54.789,54.789,0,0,1-.23,7.14,49.555,49.555,0,0,1-1.2,6.99,42.822,42.822,0,0,1-2.2,6.65,33.007,33.007,0,0,1-3.31,6.01,20.679,20.679,0,0,1-4.59,4.78l.39.64a18.97,18.97,0,0,0,2.53-2.3,23.36,23.36,0,0,0,2.15-2.7,33.8,33.8,0,0,0,3.3-6.17,43.668,43.668,0,0,0,2.14-6.77Z" fill="#a7aaab"/>
        <path id="Path_28339" data-name="Path 28339" d="M94.6,76.47a8.547,8.547,0,0,0,.32,1.06c.03.09.07.17.1.26s.07.16.11.25a4.929,4.929,0,0,0,.23.46,9.092,9.092,0,0,0,1.28,1.76,5.274,5.274,0,0,0,1.65,1.22c-.27-.43-.53-.86-.77-1.28s-.47-.85-.69-1.28-.42-.85-.61-1.27c-.05-.1-.09-.21-.14-.31s-.09-.21-.14-.32c-.09-.21-.17-.42-.26-.62.19.39.38.79.59,1.19.34.63.72,1.27,1.13,1.9l.15.24c.05.08.1.16.15.23.1.16.21.31.32.46.22.31.44.62.67.92a2.887,2.887,0,0,0,.11-.35,2.653,2.653,0,0,0,.06-.42,5.289,5.289,0,0,0-.26-1.99,3.886,3.886,0,0,0-.43-.92c-.05-.09-.11-.17-.17-.26s-.12-.17-.19-.26a6.4,6.4,0,0,0-.41-.5,7.738,7.738,0,0,0-.92-.89,6.86,6.86,0,0,0-2.04-1.2,2.956,2.956,0,0,0-.05.44v.23a1.926,1.926,0,0,0,.01.24,5.014,5.014,0,0,0,.06.51c.03.17.07.35.11.53Z" fill="#a7aaab"/>
        <path id="Path_28340" data-name="Path 28340" d="M105.61,81.36a8.187,8.187,0,0,0-1.2-.33c-.2-.04-.41-.07-.61-.09-.1-.01-.2-.02-.3-.02s-.2-.01-.3-.01a4.726,4.726,0,0,0-.98.1,6.258,6.258,0,0,0-.96.29,5.053,5.053,0,0,0-.84.41c-.12.08-.24.15-.35.23a1.715,1.715,0,0,0-.28.25c.34.14.68.27,1.02.38a5.085,5.085,0,0,0,.52.15c.09.02.17.05.26.07l.26.06a9.526,9.526,0,0,0,2.14.19,8.771,8.771,0,0,0,1.34-.17,5.784,5.784,0,0,1-.69.17c-.11.02-.23.05-.34.07s-.23.04-.35.05a8.9,8.9,0,0,1-2.79-.1,11.053,11.053,0,0,1-1.37-.36,4.727,4.727,0,0,0,1.52,1.43,4.679,4.679,0,0,0,1.99.65,3.124,3.124,0,0,0,.53,0,2.66,2.66,0,0,0,.28-.03c.09-.01.19-.03.29-.05a5.14,5.14,0,0,0,1.18-.4,6.454,6.454,0,0,0,.58-.31,4.039,4.039,0,0,0,.54-.38c.09-.07.17-.14.25-.21s.16-.15.24-.23a4.63,4.63,0,0,0,.41-.49,4.705,4.705,0,0,0-1.98-1.32Z" fill="#a7aaab"/>
        <path id="Path_28341" data-name="Path 28341" d="M96.49,71.79a6.249,6.249,0,0,0,.27.98c.06.17.13.33.2.49s.15.32.23.48a5.7,5.7,0,0,0,.54.86,5.9,5.9,0,0,0,3.13,2.27c-.31-.35-.61-.71-.9-1.07s-.56-.73-.82-1.09c-.13-.18-.25-.37-.37-.55s-.24-.37-.35-.55c-.23-.37-.45-.75-.64-1.12.22.35.44.7.7,1.04.1.14.21.28.31.41s.21.27.31.41c.21.27.44.53.67.8s.47.52.71.78.5.51.75.75a1.968,1.968,0,0,0,.05-.35v-.41a4.317,4.317,0,0,0-.15-.91,4.687,4.687,0,0,0-.86-1.73,7.5,7.5,0,0,0-1.8-1.56,5.907,5.907,0,0,0-2.05-.83,3.226,3.226,0,0,0,0,.44.908.908,0,0,0,.03.23,1.6,1.6,0,0,0,.03.23Z" fill="#a7aaab"/>
        <path id="Path_28342" data-name="Path 28342" d="M105.33,75.58a4.77,4.77,0,0,0-1.75.65,5.213,5.213,0,0,0-.73.51,1.852,1.852,0,0,0-.28.28c-.08.09-.15.19-.22.28a9.159,9.159,0,0,0,1,.18c.33.04.67.07,1,.09s.67,0,1-.02c.17-.01.34-.03.5-.05s.33-.05.5-.08a8.9,8.9,0,0,0,1.22-.35,8.45,8.45,0,0,1-1.24.46c-.21.06-.42.11-.64.16s-.43.08-.65.11a9.454,9.454,0,0,1-1.3.08,8.4,8.4,0,0,1-1.32-.11,4.477,4.477,0,0,0,3.55,1.34,4.451,4.451,0,0,0,1.51-.47,5.441,5.441,0,0,0,1.44-1.08c.07-.07.14-.15.21-.22s.13-.16.18-.24a5.287,5.287,0,0,0,.32-.5,4.354,4.354,0,0,0-2.01-.94,6.861,6.861,0,0,0-2.3-.08Z" fill="#a7aaab"/>
        <path id="Path_28343" data-name="Path 28343" d="M98.23,68.32c.06.15.13.31.2.46a6.076,6.076,0,0,0,1.09,1.61,5.2,5.2,0,0,0,3.17,1.7c-.33-.28-.65-.58-.95-.88s-.6-.61-.88-.92-.54-.63-.79-.95c-.12-.16-.25-.32-.37-.49s-.24-.33-.35-.49c.24.3.49.61.76.9.43.47.89.92,1.37,1.35s1,.84,1.53,1.23a2.587,2.587,0,0,0-.04-.72,4.544,4.544,0,0,0-.24-.83,5.387,5.387,0,0,0-.42-.83,4.407,4.407,0,0,0-.56-.7,6.4,6.4,0,0,0-.85-.69,6.69,6.69,0,0,0-.97-.55A5.256,5.256,0,0,0,97.94,67a3.423,3.423,0,0,0,.14.86c.04.15.1.3.16.46Z" fill="#a7aaab"/>
        <path id="Path_28344" data-name="Path 28344" d="M107.77,70.1a6.187,6.187,0,0,0-1.06.19,3.729,3.729,0,0,0-.81.33,6.03,6.03,0,0,0-.75.49,4.323,4.323,0,0,0-.62.57,3.682,3.682,0,0,0-.41.58,9.928,9.928,0,0,0,1.89-.02,8.6,8.6,0,0,0,1.85-.39,7.465,7.465,0,0,0,1.09-.47c-.18.11-.36.21-.54.31s-.37.18-.56.27a8.377,8.377,0,0,1-1.16.4,7.965,7.965,0,0,1-1.2.24,10.192,10.192,0,0,1-1.24.08,4.171,4.171,0,0,0,3.45.76,4.535,4.535,0,0,0,1.79-.95,3.781,3.781,0,0,0,.41-.39c.13-.14.25-.28.37-.43a4.074,4.074,0,0,0,.56-.96,3.962,3.962,0,0,0-1.97-.63,6.613,6.613,0,0,0-1.09.01Z" fill="#a7aaab"/>
        <path id="Path_28345" data-name="Path 28345" d="M99.24,63.84a5.242,5.242,0,0,0,.4.83,5.589,5.589,0,0,0,1.16,1.4,4.707,4.707,0,0,0,3.11,1.22,17.324,17.324,0,0,1-1.87-1.47c-.28-.26-.57-.53-.83-.81s-.51-.56-.75-.85c.25.26.5.52.78.77a16.634,16.634,0,0,0,2.94,2.09,3.208,3.208,0,0,0-.4-1.43,3.914,3.914,0,0,0-1.05-1.32,5.666,5.666,0,0,0-3.71-1.25,2.024,2.024,0,0,0,.08.4c.04.13.08.27.13.41Z" fill="#a7aaab"/>
        <path id="Path_28346" data-name="Path 28346" d="M107.48,65.16a4.185,4.185,0,0,0-1.38.94,3.652,3.652,0,0,0-.85,1.2,10.224,10.224,0,0,0,1.75-.23,8.229,8.229,0,0,0,1.67-.57,9.432,9.432,0,0,0,.98-.55,8.638,8.638,0,0,1-.97.65,8.144,8.144,0,0,1-1.03.5,9.006,9.006,0,0,1-2.24.58,3.908,3.908,0,0,0,3.28.31,4.117,4.117,0,0,0,1.57-1.07,5.374,5.374,0,0,0,.65-.84,3.47,3.47,0,0,0,.25-.46,4.682,4.682,0,0,0,.18-.48,4.886,4.886,0,0,0-3.86.03Z" fill="#a7aaab"/>
        <path id="Path_28347" data-name="Path 28347" d="M103.35,61.57q.72.405,1.5.75a1.934,1.934,0,0,0-.15-.61,4.226,4.226,0,0,0-.34-.67,3.77,3.77,0,0,0-1.08-1.13,5.508,5.508,0,0,0-1.75-.73,4.508,4.508,0,0,0-1.78-.07,3.278,3.278,0,0,0,.26.74,5.226,5.226,0,0,0,.45.74,4.585,4.585,0,0,0,.57.67,4.491,4.491,0,0,0,3.6,1.34,14.668,14.668,0,0,1-1.86-1.18c-.29-.22-.57-.44-.83-.67-.13-.12-.26-.23-.39-.35s-.25-.24-.38-.36a10.015,10.015,0,0,0,.79.64,12.69,12.69,0,0,0,1.39.9Z" fill="#a7aaab"/>
        <path id="Path_28348" data-name="Path 28348" d="M107.75,60.25a4.355,4.355,0,0,0-1.2,1,3.791,3.791,0,0,0-.43.61,2.034,2.034,0,0,0-.25.58,9.717,9.717,0,0,0,1.61-.4,8.468,8.468,0,0,0,1.5-.69,8.292,8.292,0,0,0,.86-.6,4.591,4.591,0,0,1-.41.36c-.14.12-.29.23-.43.33a8.775,8.775,0,0,1-.92.57,8.558,8.558,0,0,1-2.03.76,3.641,3.641,0,0,0,3.06-.05,3.87,3.87,0,0,0,.71-.46,5.34,5.34,0,0,0,.66-.68,4.1,4.1,0,0,0,.53-.84,3.531,3.531,0,0,0,.32-.91,3.513,3.513,0,0,0-1.78-.17,5.65,5.65,0,0,0-1.8.57Z" fill="#a7aaab"/>
        <path id="Path_28349" data-name="Path 28349" d="M103.64,57.25a13.98,13.98,0,0,0,1.45.55,2.253,2.253,0,0,0-.19-.55,3.4,3.4,0,0,0-.37-.59,3.307,3.307,0,0,0-1.08-.94,4.814,4.814,0,0,0-3.32-.41,2.416,2.416,0,0,0,.3.66,4.04,4.04,0,0,0,.47.64,5.113,5.113,0,0,0,.57.57,3.458,3.458,0,0,0,.62.43,3.886,3.886,0,0,0,2.82.46,13.917,13.917,0,0,1-1.81-.91,12.174,12.174,0,0,1-1.58-1.13c.25.18.5.36.77.52a12.351,12.351,0,0,0,1.35.7Z" fill="#a7aaab"/>
        <path id="Path_28350" data-name="Path 28350" d="M106.23,58.11a3.375,3.375,0,0,0,2.82-.34,3.276,3.276,0,0,0,.61-.49,4.812,4.812,0,0,0,.56-.69,5.345,5.345,0,0,0,.43-.82,4,4,0,0,0,.23-.87,4.278,4.278,0,0,0-3.27.71,3.887,3.887,0,0,0-1.02,1.04,3.807,3.807,0,0,0-.35.61,2.01,2.01,0,0,0-.18.56,9.852,9.852,0,0,0,1.44-.52,7.124,7.124,0,0,0,1.33-.78,6.405,6.405,0,0,0,.74-.64,7.425,7.425,0,0,1-1.53,1.33,8.416,8.416,0,0,1-1.8.9Z" fill="#a7aaab"/>
        <path id="Path_28351" data-name="Path 28351" d="M103.59,53.14a12.559,12.559,0,0,0,1.37.37,2.006,2.006,0,0,0-.21-.49,3.462,3.462,0,0,0-.39-.51,2.924,2.924,0,0,0-1.07-.76,3.806,3.806,0,0,0-.77-.22,5.576,5.576,0,0,0-.81-.09,3.815,3.815,0,0,0-1.5.25,2.791,2.791,0,0,0,.32.58,4.844,4.844,0,0,0,.48.55,5.079,5.079,0,0,0,.57.47,3.044,3.044,0,0,0,.6.34,3.516,3.516,0,0,0,2.62.15,11.934,11.934,0,0,1-1.73-.67c-.27-.13-.54-.27-.8-.42-.13-.07-.25-.15-.38-.23s-.25-.16-.37-.24c.24.14.49.28.75.41a11.362,11.362,0,0,0,1.3.52Z" fill="#a7aaab"/>
        <path id="Path_28352" data-name="Path 28352" d="M108.51,50.45a5.066,5.066,0,0,0-.75.34,5.4,5.4,0,0,0-.68.46,3.742,3.742,0,0,0-.86,1.06,4.359,4.359,0,0,0-.27.59,2.473,2.473,0,0,0-.13.54,8.506,8.506,0,0,0,1.29-.62,7.18,7.18,0,0,0,1.16-.85,6.55,6.55,0,0,0,.63-.66c-.09.13-.19.26-.29.38s-.21.24-.32.35a8.3,8.3,0,0,1-.69.64,7.664,7.664,0,0,1-1.58,1,3.13,3.13,0,0,0,2.56-.58,2.772,2.772,0,0,0,.52-.51,4.32,4.32,0,0,0,.45-.69,3.744,3.744,0,0,0,.33-.8,3.355,3.355,0,0,0,.14-.82,2.952,2.952,0,0,0-1.51.17Z" fill="#a7aaab"/>
        <path id="Path_28353" data-name="Path 28353" d="M102.83,48.03a3.884,3.884,0,0,0-2.8.25,2.9,2.9,0,0,0,.82.95,3.64,3.64,0,0,0,1.13.63,3.179,3.179,0,0,0,2.39-.11,12.194,12.194,0,0,1-1.63-.44c-.26-.09-.51-.2-.76-.31s-.49-.23-.72-.36a7.758,7.758,0,0,0,.72.3,10.033,10.033,0,0,0,1.22.35,10.992,10.992,0,0,0,1.28.2,2.362,2.362,0,0,0-.63-.86,2.842,2.842,0,0,0-1.03-.6Z" fill="#a7aaab"/>
        <path id="Path_28354" data-name="Path 28354" d="M105.54,48.27a2.709,2.709,0,0,0-.27,1.07,8.646,8.646,0,0,0,1.12-.69,6.374,6.374,0,0,0,.99-.89,6.553,6.553,0,0,0,.52-.66,7.738,7.738,0,0,1-.49.73,5.98,5.98,0,0,1-.58.65,7.461,7.461,0,0,1-1.36,1.07,2.866,2.866,0,0,0,2.28-.78,3.531,3.531,0,0,0,.79-1.19,3.59,3.59,0,0,0,.29-1.53,3.69,3.69,0,0,0-2.6,1.17,3.329,3.329,0,0,0-.7,1.05Z" fill="#a7aaab"/>
        <path id="Path_28355" data-name="Path 28355" d="M103.71,45.77a1.961,1.961,0,0,0-.63-.71,2.474,2.474,0,0,0-.98-.44,3.66,3.66,0,0,0-2.51.5,1.954,1.954,0,0,0,.35.42,3.43,3.43,0,0,0,.47.36,2.992,2.992,0,0,0,1.07.45,2.908,2.908,0,0,0,2.15-.34,9.03,9.03,0,0,1-1.5-.24,8.593,8.593,0,0,1-1.38-.46c.22.07.44.14.67.2a9.219,9.219,0,0,0,2.3.25Z" fill="#a7aaab"/>
        <path id="Path_28356" data-name="Path 28356" d="M104.57,44.56a2.588,2.588,0,0,0-.16,1,6.894,6.894,0,0,0,1.77-1.64c.15-.21.29-.43.42-.65a6.764,6.764,0,0,1-.85,1.36,6.975,6.975,0,0,1-1.14,1.1,2.673,2.673,0,0,0,1.99-.93,3.193,3.193,0,0,0,.62-1.16,4.268,4.268,0,0,0,.15-.71,4.09,4.09,0,0,0,0-.7,3.375,3.375,0,0,0-2.25,1.32,3.212,3.212,0,0,0-.54,1.02Z" fill="#a7aaab"/>
        <path id="Path_28357" data-name="Path 28357" d="M101.64,42.46a9.412,9.412,0,0,0,1.05-.07,1.326,1.326,0,0,0-.25-.3,2.156,2.156,0,0,0-.38-.27,2.482,2.482,0,0,0-.44-.2,1.95,1.95,0,0,0-.47-.09,3.253,3.253,0,0,0-2.19.72,2.254,2.254,0,0,0,.79.61,3.068,3.068,0,0,0,.5.2,2.247,2.247,0,0,0,.49.1,2.636,2.636,0,0,0,1.89-.53,7.617,7.617,0,0,1-1.36-.06,7.523,7.523,0,0,1-1.27-.26c.2.04.4.08.61.11a7.038,7.038,0,0,0,1.03.05Z" fill="#a7aaab"/>
        <path id="Path_28358" data-name="Path 28358" d="M103.5,40.71a3.332,3.332,0,0,0-.16.51,3.04,3.04,0,0,0-.07.49,2.75,2.75,0,0,0,.02.42,7.093,7.093,0,0,0,.79-.76,5.808,5.808,0,0,0,.65-.89,6.193,6.193,0,0,0,.32-.63,5.9,5.9,0,0,1-.64,1.31,6.521,6.521,0,0,1-.93,1.11,2.406,2.406,0,0,0,1.7-1.04,2.6,2.6,0,0,0,.27-.5,2.885,2.885,0,0,0,.18-.61,3.115,3.115,0,0,0,0-1.29,3.143,3.143,0,0,0-1.89,1.42,2.2,2.2,0,0,0-.23.46Z" fill="#a7aaab"/>
        <path id="Path_28359" data-name="Path 28359" d="M101.43,39.37s-.07-.08-.11-.12a1.74,1.74,0,0,0-.14-.12,2.3,2.3,0,0,0-.35-.2,1.852,1.852,0,0,0-.83-.15,3.172,3.172,0,0,0-1.02.28,2.613,2.613,0,0,0-.84.6,1.46,1.46,0,0,0,.33.26,4.082,4.082,0,0,0,.42.19,2.616,2.616,0,0,0,.9.15,2.375,2.375,0,0,0,1.61-.67,7.109,7.109,0,0,1-1.2.1,5.524,5.524,0,0,1-.58-.02,2.661,2.661,0,0,1-.28-.03,2.7,2.7,0,0,1-.28-.04c.18.01.36.02.55.02a7.187,7.187,0,0,0,1.82-.25Z" fill="#a7aaab"/>
        <path id="Path_28360" data-name="Path 28360" d="M101.88,38.71a.681.681,0,0,0,.02.2.471.471,0,0,0,.04.17,5.866,5.866,0,0,0,1.12-1.62,4.188,4.188,0,0,0,.22-.59c-.02.11-.05.21-.08.32s-.07.21-.1.31a4.024,4.024,0,0,1-.26.6,5.443,5.443,0,0,1-.71,1.08,2.237,2.237,0,0,0,1.4-1.11,2.774,2.774,0,0,0,.29-1.03,2.908,2.908,0,0,0,0-.59,2.444,2.444,0,0,0-.12-.55,2.1,2.1,0,0,0-.87.55,3.772,3.772,0,0,0-.66.92,2.681,2.681,0,0,0-.26.9,2.328,2.328,0,0,0-.02.45Z" fill="#a7aaab"/>
        <path id="Path_28361" data-name="Path 28361" d="M97.86,37.7a2.343,2.343,0,0,0,.79.02,2.153,2.153,0,0,0,1.33-.78c-.17.05-.35.1-.52.14s-.34.07-.51.1-.34.04-.5.05h-.49c.16-.01.32-.03.48-.05a7.479,7.479,0,0,0,1.55-.43,1.3,1.3,0,0,0-.56-.31,1.506,1.506,0,0,0-.73-.03,2.715,2.715,0,0,0-1.52.99,1.328,1.328,0,0,0,.31.18,2.376,2.376,0,0,0,.38.11Z" fill="#a7aaab"/>
        <path id="Path_28362" data-name="Path 28362" d="M101.19,34.88a3.531,3.531,0,0,0,.13-.54,1.445,1.445,0,0,1-.04.29c-.02.1-.04.19-.06.29a4.975,4.975,0,0,1-.16.55c-.06.18-.14.35-.22.53a4.994,4.994,0,0,1-.29.5,2,2,0,0,0,1.1-1.13,2.422,2.422,0,0,0,.15-.93,2.306,2.306,0,0,0-.06-.52,2.164,2.164,0,0,0-.16-.47,2.555,2.555,0,0,0-1.17,1.47,2.472,2.472,0,0,0-.13.82,1.937,1.937,0,0,0,.11.7,5.07,5.07,0,0,0,.8-1.55Z" fill="#a7aaab"/>
        <path id="Path_28363" data-name="Path 28363" d="M98.51,35.15a1.366,1.366,0,0,0,.63.15,5.241,5.241,0,0,0-1.05-1.41,2.652,2.652,0,0,0-.42-.33,1.818,1.818,0,0,1,.23.15,1.839,1.839,0,0,1,.22.17c.14.12.28.24.41.37a3.809,3.809,0,0,1,.37.43,4.071,4.071,0,0,1,.33.48,2.363,2.363,0,0,0-.6-1.56,2.1,2.1,0,0,0-.74-.5,1.856,1.856,0,0,0-.46-.13,1.359,1.359,0,0,0-.45,0,2.912,2.912,0,0,0,.86,1.76,2.2,2.2,0,0,0,.65.44Z" fill="#a7aaab"/>
      </g>
    </g>
  </g>
</svg>
