<svg xmlns="http://www.w3.org/2000/svg" width="111.787" height="101.874" viewBox="0 0 111.787 101.874">
  <g id="Layer_1" data-name="Layer 1" transform="translate(0 0.001)" opacity="0.697">
    <path id="Path_28291" data-name="Path 28291" d="M111.787,40.676V78.008a9.275,9.275,0,0,1-1.893,1.329c-8.266,3.186-16.554,6.322-24.835,9.472q-16.748,6.369-33.494,12.745a2.764,2.764,0,0,1-2.5.029q-14.947-8.217-29.917-16.4a2.168,2.168,0,0,1-1.218-2.134c.027-.9,0-1.8,0-2.8-1.73.248-3.332.535-4.948.681a3.944,3.944,0,0,1-2.076-.311c-3.252-1.7-6.448-3.5-9.676-5.25A2.181,2.181,0,0,1,0,73.259q.026-14.3,0-28.592a2.162,2.162,0,0,1,1.415-2.209c3.16-1.383,6.3-2.814,9.476-4.161a4.505,4.505,0,0,1,2-.265c1.65.114,3.291.34,5.048.535V37.241c0-4.365.017-8.73-.012-13.1a2.869,2.869,0,0,1,1.315-2.569Q34,11.088,48.724.553A2.406,2.406,0,0,1,51.453.315Q72.343,10.68,93.252,21a2.379,2.379,0,0,1,1.495,2.4c-.036,3.383.022,6.766-.036,10.147a1.229,1.229,0,0,0,1.055,1.429c4.73,1.417,9.455,2.853,14.155,4.365a7.562,7.562,0,0,1,1.867,1.337ZM58.954,80.409q0,7.805,0,15.609c0,1.23.219,1.388,1.342.962,3.94-1.492,7.867-3.014,11.817-4.482a1.322,1.322,0,0,0,1.006-1.441q-.029-13.424,0-26.849c0-1.018-.369-1.344-1.361-1.269-3.843.3-7.69.571-11.537.792-.992.056-1.3.42-1.288,1.4.041,5.094.019,10.186.019,15.28Zm19.918-4.256c0,4.11-.007,8.22,0,12.33,0,1.12.272,1.305,1.312.916,2.552-.953,5.092-1.935,7.644-2.88a1.119,1.119,0,0,0,.868-1.191q-.026-11.185,0-22.37c0-.873-.345-1.159-1.184-1.094-2.428.19-4.859.382-7.291.491-1.106.049-1.385.537-1.373,1.575.049,4.073.019,8.147.019,12.22ZM53.745,17.185c0,2.11.015,4.222-.01,6.331a1.114,1.114,0,0,0,.916,1.254c2.958.882,5.9,1.818,8.852,2.72,1.084.331,1.329.153,1.332-.955.01-3.711-.012-7.423.017-11.134a1.3,1.3,0,0,0-.907-1.4c-2.946-1.237-5.87-2.533-8.806-3.8-1.145-.493-1.39-.318-1.4.979-.007,2,0,4,0,6Zm11.1,28.386c0-1.854-.024-3.709.012-5.561.015-.741-.226-1.147-.992-1.281q-4.506-.78-9-1.621c-.766-.143-1.113.087-1.113.86q0,6.38,0,12.76c0,.734.338,1.035,1.055,1.072,2.941.143,5.882.284,8.818.486,1,.068,1.261-.348,1.24-1.261-.044-1.816-.012-3.636-.012-5.454ZM45.929,71.137c0-2.034-.017-4.069.01-6.1.01-.715-.25-1.084-.975-1.147q-2.822-.244-5.641-.525c-.719-.073-1.1.158-1.1.938.01,3.743-.015,7.486.036,11.226a1.352,1.352,0,0,0,.71,1.016c1.847.637,3.719,1.215,5.607,1.721,1.106.3,1.342.051,1.349-1.13.015-2,0-4,0-6Zm-.01-52.732c0-2.073.015-4.146,0-6.22-.01-1.06-.362-1.259-1.259-.71-1.923,1.174-3.847,2.348-5.724,3.595a1.718,1.718,0,0,0-.676,1.21c-.051,3.672-.036,7.347-.027,11.022,0,1.116.289,1.286,1.339.826,1.83-.8,3.638-1.65,5.483-2.413a1.282,1.282,0,0,0,.88-1.417c-.034-1.964-.012-3.928-.012-5.891Zm0,26.322c0-2.071-.015-4.142.007-6.212.007-.787-.321-1.069-1.074-.875-1.964.513-3.94.992-5.882,1.577a1.334,1.334,0,0,0-.712,1.011c-.051,3.741-.029,7.481-.034,11.224,0,.746.345,1.045,1.086.979,1.845-.168,3.689-.328,5.537-.452.839-.056,1.1-.452,1.086-1.261-.041-2-.012-4-.015-5.994ZM80.082,26.579c0-1.526-.024-3.05.012-4.577a1.3,1.3,0,0,0-.9-1.419c-2.01-.834-3.993-1.726-6-2.579-1.006-.43-1.288-.236-1.293.911-.012,3.378.01,6.754-.017,10.133a1.194,1.194,0,0,0,.984,1.329c1.983.578,3.954,1.2,5.933,1.794,1,.3,1.257.122,1.271-.909.019-1.56,0-3.123,0-4.686ZM71.9,46.463c0,1.706.029,3.412-.012,5.116-.022.882.343,1.235,1.2,1.283,1.957.107,3.911.255,5.862.413.722.058,1.123-.194,1.125-.948,0-3.267.024-6.533-.034-9.8a1.284,1.284,0,0,0-.78-.938c-2.054-.445-4.134-.766-6.2-1.167-.9-.175-1.184.187-1.171,1.031.024,1.67.007,3.339.007,5.009ZM33.942,24.71c0-1.709.022-3.42-.01-5.128-.019-.982-.386-1.171-1.23-.661-1.305.79-2.62,1.575-3.867,2.45a1.733,1.733,0,0,0-.654,1.208c-.053,3.092-.039,6.183-.024,9.275,0,.992.282,1.171,1.2.787,1.24-.52,2.45-1.111,3.7-1.6a1.288,1.288,0,0,0,.9-1.417c-.032-1.636-.01-3.274-.012-4.91Zm-.01,44.235c0-1.672-.022-3.342.01-5.014.017-.807-.26-1.189-1.116-1.23-1.159-.053-2.316-.2-3.468-.345-.824-.107-1.225.141-1.218,1.038q.036,4.63,0,9.265a1.033,1.033,0,0,0,.882,1.157c1.227.321,2.462.629,3.67,1.014.967.306,1.257-.068,1.244-.979-.024-1.636-.007-3.269-.007-4.9Zm0-22.144c0-1.706,0-3.415,0-5.121,0-.817-.3-1.118-1.152-.863-1.249.374-2.545.608-3.777,1.026a1.434,1.434,0,0,0-.817,1.028c-.063,3.123-.027,6.246-.044,9.369,0,.812.333,1.116,1.133,1.023a29.549,29.549,0,0,1,3.361-.294c1.1,0,1.344-.508,1.31-1.485-.056-1.56-.015-3.123-.017-4.686ZM84.887,28.667c0,1.487.022,2.975-.01,4.462a1.041,1.041,0,0,0,.836,1.193c1.427.413,2.836.877,4.261,1.293.982.287,1.247.085,1.252-.955.012-2.649-.012-5.3.017-7.945a1.24,1.24,0,0,0-.89-1.31c-1.407-.574-2.8-1.2-4.2-1.786-1-.413-1.249-.253-1.261.8-.017,1.415,0,2.829,0,4.244Zm-.007,19.32c0,1.524.012,3.05,0,4.574-.007.683.287.979.97,1.006,1.415.051,2.829.119,4.239.233.88.07,1.159-.318,1.152-1.135q-.029-3.974,0-7.95a1.028,1.028,0,0,0-.989-1.174c-1.432-.236-2.866-.462-4.282-.766-.887-.19-1.1.194-1.094.965.017,1.415,0,2.832.007,4.248ZM25.33,29.333c0-1.453.019-2.907-.007-4.36-.017-.96-.394-1.164-1.235-.673-.941.549-1.881,1.108-2.761,1.743a1.514,1.514,0,0,0-.586,1.033c-.049,2.725-.022,5.452-.029,8.176,0,.826.379,1.052,1.106.744.9-.384,1.779-.824,2.693-1.179a1.2,1.2,0,0,0,.834-1.339c-.039-1.381-.012-2.761-.012-4.144Zm0,38.022c0-1.451-.022-2.9.01-4.353.015-.724-.28-1.077-1-1.128-.831-.061-1.662-.134-2.491-.238-.863-.109-1.174.25-1.157,1.1.036,1.777.01,3.556.01,5.332,0,3.575,0,3.563,3.461,4.4.795.192,1.181,0,1.169-.868C25.316,70.187,25.33,68.772,25.33,67.355Zm0-19.082c0-1.453-.007-2.909,0-4.363,0-.707-.284-1.033-1.006-.851a29.651,29.651,0,0,0-2.941.8,1.251,1.251,0,0,0-.644.943c-.051,2.727-.024,5.454-.034,8.181,0,.644.265.945.924.887.9-.08,1.811-.165,2.717-.214.736-.039,1.006-.4.989-1.125-.032-1.417-.01-2.836-.01-4.253Zm71.3,17.509c0,1.271.015,2.542,0,3.813-.012.836.365,1.106,1.159.928.955-.214,1.915-.411,2.88-.574a.9.9,0,0,0,.882-1.009q-.026-3.485,0-6.973c0-.783-.379-1.023-1.091-.965-.977.08-1.954.151-2.934.2-.642.034-.894.374-.892.982.007,1.2,0,2.4,0,3.6Zm4.907-15.757V48.39a3.027,3.027,0,0,0-2.729-3.284c-.391-.075-.787-.134-1.176-.219-.647-.141-.992.117-.994.77-.01,2.542,0,5.085,0,7.627,0,.622.284.916.924.938.979.032,1.959.109,2.936.187.744.058,1.069-.258,1.052-1.009-.024-1.125-.007-2.253,0-3.378Zm2.183,14.855c0,1.125.007,2.248,0,3.374-.007.751.3,1.077,1.077.9.707-.158,1.422-.289,2.136-.4a1,1,0,0,0,.97-1.167c-.039-1.959-.019-3.918-.01-5.877,0-.639-.09-1.322-.894-1.12-1.1.277-2.605-.615-3.267,1.028a1.546,1.546,0,0,0-.012.542v2.722Zm0-14.522V51.88c0,3.186-.245,2.659,2.593,2.834.18.012.362.027.542.049.744.083,1.057-.245,1.045-.994-.024-1.412.017-2.824-.012-4.236-.066-3.245.642-2.637-2.958-3.216-.941-.151-1.254.221-1.22,1.113.036.977.01,1.957.007,2.934ZM10.655,64.592c0-1.016.061-2.037-.032-3.043-.034-.365-.411-.965-.678-.992a18.053,18.053,0,0,0-3.031.056,2.012,2.012,0,0,0-.129.809c-.015,1.2-.007,2.392-.007,3.59a3.1,3.1,0,0,0,2.681,3.364l.107.022c.751.194,1.1-.1,1.091-.87-.01-.979,0-1.957,0-2.936Zm0-13.781c0-1.016.007-2.034,0-3.05-.007-.741-.316-1.082-1.106-.831a18.038,18.038,0,0,1-1.893.491.986.986,0,0,0-.882,1.147c.027,1.524.007,3.05.007,4.574q0,1.969,2.01,1.779a3.4,3.4,0,0,1,.542-.036c.977.068,1.393-.362,1.334-1.354-.053-.9-.012-1.816-.012-2.722ZM4.9,51.817h0c0-.761.01-1.521,0-2.28-.019-1.213-.168-1.322-1.346-1.026-.28.07-.554.173-.839.216a1.018,1.018,0,0,0-.958,1.2c.029,1.483.024,2.968,0,4.453-.012.86.372,1.191,1.21,1.055A3.518,3.518,0,0,0,4.042,55.3c.343-.19.778-.544.824-.875a19.316,19.316,0,0,0,.039-2.6Zm0,11.586c0-.8-.017-1.6,0-2.4.019-.707-.253-1.1-1-1.113A9.586,9.586,0,0,1,2.824,59.8c-.761-.1-1.065.255-1.055.994.015,1.529-.049,3.06.044,4.581a1.784,1.784,0,0,0,.807,1.06,4.023,4.023,0,0,0,1.24.389c.7.192,1.05-.07,1.05-.8V63.4Z" fill="#a7aaab"/>
  </g>
</svg>
